<?xml version="1.0" encoding="utf-8"?>
<!-- Generator: Adobe Illustrator 15.1.0, SVG Export Plug-In . SVG Version: 6.00 Build 0)  -->
<!DOCTYPE svg PUBLIC "-//W3C//DTD SVG 1.1//EN" "http://www.w3.org/Graphics/SVG/1.1/DTD/svg11.dtd">
<svg version="1.1"
	 id="svg2" xmlns:svg="http://www.w3.org/2000/svg" xmlns:dc="http://purl.org/dc/elements/1.1/" xmlns:rdf="http://www.w3.org/1999/02/22-rdf-syntax-ns#" xmlns:cc="http://creativecommons.org/ns#" xmlns:ns="http://ns.adobe.com/SaveForWeb/1.0/"
	 xmlns="http://www.w3.org/2000/svg" xmlns:xlink="http://www.w3.org/1999/xlink" x="0px" y="0px" width="721px" height="506px"
	 viewBox="0 0 721 506" enable-background="new 0 0 721 506" xml:space="preserve">
<text id="text217" transform="matrix(1 0 0 1 354.6936 428.4814)" font-family="'Liberation Sans','LiberationSans-Regular',Arial,sans-serif" font-size="9">1: Elections are every 5 years. The right to vote may be different depending on the country</text>
<text id="text219" transform="matrix(1 0 0 1 355.0237 440.0566)" font-family="'Liberation Sans','LiberationSans-Regular',Arial,sans-serif" font-size="9">2: State chamber. Convenes in varying composition depending on the policy area.</text>
<text id="text221" transform="matrix(1 0 0 1 354.9963 464.7021)" font-family="'Liberation Sans','LiberationSans-Regular',Arial,sans-serif" font-size="9">3: Each country is represented by one member</text>
<text id="text223" transform="matrix(1 0 0 1 355.2424 476.3467)" font-family="'Liberation Sans','LiberationSans-Regular',Arial,sans-serif" font-size="9">4: The European Central Bank is composed of representatives of the national central banks.</text>
<rect id="rect273" x="21" y="420.796" fill="#FDE2AD" stroke="#FDAB3D" stroke-width="2" stroke-miterlimit="10" width="29" height="13"/>
<text id="text279" transform="matrix(1 0 0 1 57.0115 430.3301)" font-family="'Liberation Sans','LiberationSans-Regular',Arial,sans-serif" font-size="11">Legislative branch</text>
<text id="text285" transform="matrix(1 0 0 1 184.718 430.3301)" font-family="'Liberation Sans','LiberationSans-Regular',Arial,sans-serif" font-size="11">elects / appoints / decides on</text>
<g id="g135" transform="translate(0,-0.60974204)">
	
		<line id="line295" fill="none" stroke="#00B050" stroke-width="2" stroke-miterlimit="10" x1="155.22" y1="428.005" x2="169.246" y2="428.005"/>
	<polygon id="polygon299" fill="#00B050" points="165.78,423.129 177.72,428.005 165.78,432.884 168.613,428.005 	"/>
</g>
<rect id="rect275" x="21" y="443.296" fill="#93C5FB" stroke="#4E9FF8" stroke-width="2" stroke-miterlimit="10" width="29" height="13"/>
<text id="text281" transform="matrix(1 0 0 1 57.0115 452.8301)" font-family="'Liberation Sans','LiberationSans-Regular',Arial,sans-serif" font-size="11">Executive branch</text>
<rect id="rect277" x="21" y="465.796" fill="#BFBFBF" stroke="#7F7F7F" stroke-width="2" stroke-miterlimit="10" width="29" height="13"/>
<text id="text283" transform="matrix(1 0 0 1 56.6604 475.373)" font-family="'Liberation Sans','LiberationSans-Regular',Arial,sans-serif" font-size="11">Judicial branch</text>
<text id="text289" transform="matrix(1 0 0 1 184.5725 449.373)" font-family="'Liberation Sans','LiberationSans-Regular',Arial,sans-serif" font-size="11">membership</text>
<g id="g143" transform="translate(0,-0.56677246)">
	
		<line id="line315" fill="none" stroke="#D53939" stroke-width="2" stroke-miterlimit="10" x1="155.22" y1="447.005" x2="169.246" y2="447.005"/>
	<polygon id="polygon319" fill="#D53939" points="165.78,442.129 177.72,447.005 165.78,451.884 168.613,447.005 	"/>
</g>
<text transform="matrix(1 0 0 1 365.0002 452.5)" font-family="'Liberation Sans','LiberationSans-Regular',Arial,sans-serif" font-size="9">Each country is represented by one member per department</text>
<text id="text289_1_" transform="matrix(1 0 0 1 185.0725 468.873)" font-family="'Liberation Sans','LiberationSans-Regular',Arial,sans-serif" font-size="11">proposes</text>
<g>
	<g>
		
			<line fill="none" stroke="#9900CC" stroke-width="2" stroke-miterlimit="10" x1="169.194" y1="465.124" x2="155.232" y2="465.134"/>
		<g>
			<polygon fill="#9900CC" points="177.667,465.118 165.724,460.248 168.561,465.125 165.731,470.004 			"/>
		</g>
	</g>
</g>
<path fill="#FDE2AD" stroke="#FDAB3D" stroke-width="2" stroke-miterlimit="10" d="M399.5,309.926c0,3.907-5.217,7.074-11.651,7.074
	h-93.697c-6.435,0-11.651-3.167-11.651-7.074v-13.852c0-3.907,5.217-7.074,11.651-7.074h93.697c6.435,0,11.651,3.167,11.651,7.074
	V309.926z"/>
<text id="text193_1_" transform="matrix(1 0 0 1 311.0271 307)" font-family="'Liberation Sans','LiberationSans-Regular',Arial,sans-serif" font-size="13">Legislation</text>
<rect id="rect177" x="57" y="146.5" fill="#BFBFBF" stroke="#7F7F7F" stroke-width="2" stroke-miterlimit="10" width="131.334" height="51.5"/>
<text id="text199" transform="matrix(1 0 0 1 77.9241 168.7793)" font-family="'Liberation Sans','LiberationSans-Regular',Arial,sans-serif" font-size="13">European Court</text>
<text id="text223_1_" transform="matrix(1 0 0 1 366.2424 488.3477)" font-family="'Liberation Sans','LiberationSans-Regular',Arial,sans-serif" font-size="9">Its Board is elected by the European Council on the proposal of the Council of Ministers</text>
<polygon id="polygon157_1_" fill="#FDE2AD" stroke="#FDAB3D" stroke-width="2" stroke-miterlimit="10" points="185,268 57,268 
	119.271,219.174 "/>
<text id="text187_1_" transform="matrix(1 0 0 1 93.6506 258.5996)" font-family="'Liberation Sans','LiberationSans-Regular',Arial,sans-serif" font-size="13">President</text>
<polygon id="polygon157_2_" fill="#93C5FB" stroke="#4E9FF8" stroke-width="2" stroke-miterlimit="10" points="623,141.826 
	495,141.826 557.271,93 "/>
<text id="text187_2_" transform="matrix(1 0 0 1 531.6506 132.5996)" font-family="'Liberation Sans','LiberationSans-Regular',Arial,sans-serif" font-size="13">President</text>
<text id="text199_9_" transform="matrix(1 0 0 1 96.9241 186.7793)" font-family="'Liberation Sans','LiberationSans-Regular',Arial,sans-serif" font-size="13">of Justice</text>
<g>
	<g>
		<line fill="none" stroke="#8E8E8E" stroke-width="2" stroke-miterlimit="10" x1="51.997" y1="64.5" x2="57.997" y2="64.5"/>
		
			<line fill="none" stroke="#8E8E8E" stroke-width="2" stroke-miterlimit="10" stroke-dasharray="11.5219,11.5219" x1="69.519" y1="64.5" x2="317.24" y2="64.5"/>
		<line fill="none" stroke="#8E8E8E" stroke-width="2" stroke-miterlimit="10" x1="323" y1="64.5" x2="329" y2="64.5"/>
	</g>
</g>
<g>
	<g>
		<line fill="none" stroke="#00B050" stroke-width="2" stroke-miterlimit="10" x1="27.473" y1="68.381" x2="27.489" y2="376.026"/>
		<g>
			<polygon fill="#00B050" points="27.473,58.496 21.782,72.425 27.473,69.12 33.164,72.425 			"/>
		</g>
	</g>
</g>
<g>
	<g>
		<line fill="none" stroke="#00B050" stroke-width="2" stroke-miterlimit="10" x1="75.477" y1="343.385" x2="75.489" y2="373.027"/>
		<g>
			<polygon fill="#00B050" points="75.473,333.5 69.787,347.432 75.477,344.124 81.169,347.427 			"/>
		</g>
	</g>
</g>
<rect id="rect179" x="12.333" y="369" fill="#F2F2F2" stroke="#A6A6A6" stroke-width="2" stroke-miterlimit="10" width="694.667" height="36"/>
<text id="text147" transform="matrix(1 0 0 1 186.925 391)" font-family="'Liberation Sans','LiberationSans-Regular',Arial,sans-serif" font-size="12">Enfranchised people (according to the electoral laws of each country)</text>
<g>
	<g>
		<line fill="none" stroke="#00B050" stroke-width="2" stroke-miterlimit="10" x1="183.115" y1="32.957" x2="163.233" y2="32.967"/>
		<g>
			<polygon fill="#00B050" points="193,32.951 179.069,27.267 182.377,32.957 179.074,38.649 			"/>
		</g>
	</g>
</g>
<rect id="rect165_2_" x="11" y="15.393" fill="#FDE2AD" stroke="#FDAB3D" stroke-width="2" stroke-miterlimit="10" width="157" height="35.607"/>
<text id="text187_3_" transform="matrix(1 0 0 1 30.6506 37.5996)" font-family="'Liberation Sans','LiberationSans-Regular',Arial,sans-serif" font-size="13">National Parliaments</text>
<line fill="none" stroke="#00B050" stroke-width="2" stroke-miterlimit="10" x1="166" y1="328.167" x2="166" y2="355.042"/>
<rect id="rect165" x="57" y="274.393" fill="#FDE2AD" stroke="#FDAB3D" stroke-width="2" stroke-miterlimit="10" width="130.021" height="52.607"/>
<text id="text199_4_" transform="matrix(1 0 0 1 93.9241 295.7793)" font-family="'Liberation Sans','LiberationSans-Regular',Arial,sans-serif" font-size="13">European</text>
<text id="text199_3_" transform="matrix(1 0 0 1 90.9241 313.7793)" font-family="'Liberation Sans','LiberationSans-Regular',Arial,sans-serif" font-size="13">Parliament</text>
<line fill="none" stroke="#00B050" stroke-width="2" stroke-miterlimit="10" x1="652" y1="355.042" x2="165.124" y2="355.042"/>
<g>
	<g>
		<line fill="none" stroke="#00B050" stroke-width="2" stroke-miterlimit="10" x1="559.48" y1="341.385" x2="559.489" y2="355.5"/>
		<g>
			<polygon fill="#00B050" points="559.473,331.5 553.79,345.433 559.48,342.124 565.172,345.425 			"/>
		</g>
	</g>
</g>
<line fill="none" stroke="#00B050" stroke-width="2" stroke-miterlimit="10" x1="230.997" y1="172.5" x2="230.997" y2="46.5"/>
<g>
	<g>
		
			<line fill="none" stroke="#00B050" stroke-width="2" stroke-miterlimit="10" x1="258.115" y1="171.953" x2="205.117" y2="171.965"/>
		<g>
			<polygon fill="#00B050" points="268,171.951 254.07,166.263 257.377,171.954 254.073,177.645 			"/>
		</g>
		<g>
			<polygon fill="#00B050" points="195.233,171.967 209.16,166.272 205.856,171.964 209.163,177.654 			"/>
		</g>
	</g>
</g>
<line fill="none" stroke="#D53939" stroke-width="2" stroke-miterlimit="10" x1="664.367" y1="161.425" x2="664.352" y2="48.5"/>
<g>
	<g>
		
			<line fill="none" stroke="#D53939" stroke-width="2" stroke-miterlimit="10" x1="581.476" y1="213.385" x2="581.489" y2="253.365"/>
		<g>
			<polygon fill="#D53939" points="581.473,203.5 575.785,217.431 581.476,214.124 587.167,217.427 			"/>
		</g>
	</g>
</g>
<polygon id="polygon157" fill="#93C5FB" stroke="#4E9FF8" stroke-width="2" stroke-miterlimit="10" points="623,269.826 
	495,269.826 557.271,221 "/>
<text id="text187" transform="matrix(1 0 0 1 532.6506 260.5996)" font-family="'Liberation Sans','LiberationSans-Regular',Arial,sans-serif" font-size="13">President</text>
<g>
	<g>
		
			<line fill="none" stroke="#D53939" stroke-width="2" stroke-miterlimit="10" x1="639.885" y1="161.436" x2="663.412" y2="161.425"/>
		<g>
			<polygon fill="#D53939" points="630,161.44 643.932,167.125 640.624,161.436 643.926,155.744 			"/>
		</g>
	</g>
</g>
<g>
	<g>
		
			<line fill="none" stroke="#9900CC" stroke-width="2" stroke-miterlimit="10" x1="534.504" y1="219.615" x2="534.492" y2="184.126"/>
		<g>
			<polygon fill="#9900CC" points="534.508,229.5 540.195,215.569 534.504,218.876 528.813,215.573 			"/>
		</g>
	</g>
</g>
<line fill="none" stroke="#9900CC" stroke-width="2" stroke-miterlimit="10" x1="664.997" y1="303.951" x2="664.997" y2="181.5"/>
<line fill="none" stroke="#9900CC" stroke-width="2" stroke-miterlimit="10" x1="620.915" y1="182.418" x2="666" y2="182.418"/>
<rect id="rect165_1_" x="495" y="147.393" fill="#93C5FB" stroke="#4E9FF8" stroke-width="2" stroke-miterlimit="10" width="130.021" height="50.607"/>
<text id="text199_6_" transform="matrix(1 0 0 1 532.9241 169.7793)" font-family="'Liberation Sans','LiberationSans-Regular',Arial,sans-serif" font-size="13">European</text>
<text id="text199_5_" transform="matrix(1 0 0 1 536.9241 187.7793)" font-family="'Liberation Sans','LiberationSans-Regular',Arial,sans-serif" font-size="13">Council</text>
<g>
	<g>
		
			<line fill="none" stroke="#9900CC" stroke-width="2" stroke-miterlimit="10" x1="639.116" y1="302.963" x2="664.996" y2="302.951"/>
		<g>
			<polygon fill="#9900CC" points="629.232,302.967 643.163,308.652 639.856,302.962 643.158,297.271 			"/>
		</g>
	</g>
</g>
<g>
	<g>
		
			<line fill="none" stroke="#00B050" stroke-width="2" stroke-miterlimit="10" x1="601.485" y1="107.615" x2="601.472" y2="53.802"/>
		<g>
			<polygon fill="#00B050" points="601.488,117.5 607.176,103.57 601.485,106.876 595.794,103.572 			"/>
		</g>
	</g>
</g>
<polygon id="polygon157_3_" fill="#93C5FB" stroke="#4E9FF8" stroke-width="2" stroke-miterlimit="10" points="708,55.826 
	565,55.826 634.568,7 "/>
<text id="text187_5_" transform="matrix(1 0 0 1 608.6506 34.5996)" font-family="'Liberation Sans','LiberationSans-Regular',Arial,sans-serif" font-size="13">Heads of</text>
<text id="text187_6_" transform="matrix(1 0 0 1 578.6506 50.5996)" font-family="'Liberation Sans','LiberationSans-Regular',Arial,sans-serif" font-size="13">state / government</text>
<line fill="none" stroke="#00B050" stroke-width="2" stroke-miterlimit="10" x1="652" y1="249.5" x2="652" y2="355.042"/>
<g>
	<g>
		<line fill="none" stroke="#00B050" stroke-width="2" stroke-miterlimit="10" x1="613.885" y1="249.421" x2="652" y2="249.408"/>
		<g>
			<polygon fill="#00B050" points="604,249.424 617.931,255.111 614.624,249.42 617.927,243.729 			"/>
		</g>
	</g>
</g>
<g>
	<g>
		
			<line fill="none" stroke="#9900CC" stroke-width="2" stroke-miterlimit="10" x1="417.117" y1="302.965" x2="495.998" y2="302.951"/>
		<g>
			<polygon fill="#9900CC" points="407.233,302.967 421.162,308.656 417.857,302.965 421.16,297.274 			"/>
		</g>
	</g>
</g>
<rect id="rect169_1_" x="494.334" y="276" fill="#93C5FB" stroke="#4E9FF8" stroke-width="2" stroke-miterlimit="10" width="130" height="51"/>
<text id="text199_1_" transform="matrix(1 0 0 1 531.9241 296.7793)" font-family="'Liberation Sans','LiberationSans-Regular',Arial,sans-serif" font-size="13">European</text>
<text id="text199_2_" transform="matrix(1 0 0 1 523.9241 314.7793)" font-family="'Liberation Sans','LiberationSans-Regular',Arial,sans-serif" font-size="13">Commission</text>
<g>
	<g>
		
			<line fill="none" stroke="#00B050" stroke-width="2" stroke-miterlimit="10" x1="267.115" y1="302.41" x2="186.865" y2="302.424"/>
		<g>
			<polygon fill="#00B050" points="277,302.408 263.071,296.719 266.377,302.41 263.073,308.101 			"/>
		</g>
	</g>
</g>
<g>
	<g>
		<line fill="none" stroke="#00B050" stroke-width="2" stroke-miterlimit="10" x1="341.939" y1="271.615" x2="341.925" y2="186.5"/>
		<g>
			<polygon fill="#00B050" points="341.94,281.5 347.63,267.57 341.938,270.876 336.248,267.572 			"/>
		</g>
	</g>
</g>
<rect id="rect179_1_" x="57.333" y="81" fill="#F2F2F2" stroke="#A6A6A6" stroke-width="2" stroke-miterlimit="10" width="131.001" height="52"/>
<text id="text199_10_" transform="matrix(1 0 0 1 92.9241 102.7793)" font-family="'Liberation Sans','LiberationSans-Regular',Arial,sans-serif" font-size="13">European</text>
<text id="text199_7_" transform="matrix(1 0 0 1 84.9241 120.7793)" font-family="'Liberation Sans','LiberationSans-Regular',Arial,sans-serif" font-size="13">Central Bank</text>
<rect id="rect179_2_" x="275.333" y="81" fill="#F2F2F2" stroke="#A6A6A6" stroke-width="2" stroke-miterlimit="10" width="131.001" height="52"/>
<text id="text199_12_" transform="matrix(1 0 0 1 297.9241 102.7793)" font-family="'Liberation Sans','LiberationSans-Regular',Arial,sans-serif" font-size="13">European Court</text>
<text id="text199_11_" transform="matrix(1 0 0 1 309.9241 120.7793)" font-family="'Liberation Sans','LiberationSans-Regular',Arial,sans-serif" font-size="13">of Auditors</text>
<g>
	<g>
		<line fill="none" stroke="#9900CC" stroke-width="2" stroke-miterlimit="10" x1="341.503" y1="65.615" x2="341.492" y2="46.126"/>
		<g>
			<polygon fill="#9900CC" points="341.508,75.5 347.192,61.568 341.502,64.876 335.81,61.574 			"/>
		</g>
	</g>
</g>
<rect id="rect169_2_" x="201.334" y="15" fill="#93C5FB" stroke="#4E9FF8" stroke-width="2" stroke-miterlimit="10" width="356" height="36"/>
<text id="text187_4_" transform="matrix(1 0 0 1 313.6506 37.5996)" font-family="'Liberation Sans','LiberationSans-Regular',Arial,sans-serif" font-size="13">National Governments</text>
<line fill="none" stroke="#00B050" stroke-width="2" stroke-miterlimit="10" x1="432.997" y1="174.5" x2="432.997" y2="107.5"/>
<line fill="none" stroke="#00B050" stroke-width="2" stroke-miterlimit="10" x1="398" y1="173.5" x2="433.997" y2="173.5"/>
<g>
	<g>
		<line fill="none" stroke="#00B050" stroke-width="2" stroke-miterlimit="10" x1="421.516" y1="107.652" x2="434" y2="107.643"/>
		<g>
			<polygon fill="#00B050" points="411.631,107.659 425.564,113.341 422.255,107.651 425.556,101.959 			"/>
		</g>
	</g>
</g>
<rect id="rect165_3_" x="276" y="146.393" fill="#FDE2AD" stroke="#FDAB3D" stroke-width="2" stroke-miterlimit="10" width="130.021" height="52.607"/>
<text id="text199_8_" transform="matrix(1 0 0 1 319.9241 168.7793)" font-family="'Liberation Sans','LiberationSans-Regular',Arial,sans-serif" font-size="13">Council</text>
<g>
	<g>
		<line fill="none" stroke="#8E8E8E" stroke-width="2" stroke-miterlimit="10" x1="352" y1="64.5" x2="358" y2="64.5"/>
		
			<line fill="none" stroke="#8E8E8E" stroke-width="2" stroke-miterlimit="10" stroke-dasharray="11.8966,11.8966" x1="369.897" y1="64.5" x2="697.052" y2="64.5"/>
		<line fill="none" stroke="#8E8E8E" stroke-width="2" stroke-miterlimit="10" x1="703" y1="64.5" x2="709" y2="64.5"/>
	</g>
</g>
<text id="text259_1_" transform="matrix(1 0 0 1 153.3333 306.833)" font-family="'Liberation Sans','LiberationSans-Regular',Arial,sans-serif" font-size="7.2367">1</text>
<text id="text259_2_" transform="matrix(1 0 0 1 375.6663 177.166)" font-family="'Liberation Sans','LiberationSans-Regular',Arial,sans-serif" font-size="7.2367">2</text>
<text id="text259_3_" transform="matrix(1 0 0 1 152.6667 179.166)" font-family="'Liberation Sans','LiberationSans-Regular',Arial,sans-serif" font-size="7.2367">3</text>
<text id="text259_4_" transform="matrix(1 0 0 1 582.6663 181.166)" font-family="'Liberation Sans','LiberationSans-Regular',Arial,sans-serif" font-size="7.2367">3</text>
<text id="text259_5_" transform="matrix(1 0 0 1 593.6663 307.166)" font-family="'Liberation Sans','LiberationSans-Regular',Arial,sans-serif" font-size="7.2367">3</text>
<text id="text259_6_" transform="matrix(1 0 0 1 157.6667 113.166)" font-family="'Liberation Sans','LiberationSans-Regular',Arial,sans-serif" font-size="7.2367">4</text>
<text id="text259_7_" transform="matrix(1 0 0 1 375.6663 111.166)" font-family="'Liberation Sans','LiberationSans-Regular',Arial,sans-serif" font-size="7.2367">3</text>
<text transform="matrix(1 0 0 1 308.9241 185.8984)" font-family="'Liberation Sans','LiberationSans-Regular',Arial,sans-serif" font-size="13">of Ministers</text>
</svg>
